<svg xmlns="http://www.w3.org/2000/svg" viewBox="0 0 30 30"><defs><style>.cls-1{fill:#4267b2;}</style></defs><title>パス 121</title><g id="レイヤー_2" data-name="レイヤー 2"><g id="レイヤー_1-2" data-name="レイヤー 1"><path id="パス_121" data-name="パス 121" class="cls-1" d="M28.35,0H1.65A1.66,1.66,0,0,0,0,1.65v26.7A1.66,1.66,0,0,0,1.65,30H16V18.39h-3.9V13.86H16V10.53c0-3.87,2.37-6,5.82-6a33.8,33.8,0,0,1,3.48.18V8.76H23c-1.89,0-2.25.9-2.25,2.19v2.88h4.5l-.6,4.53H20.7V30h7.65A1.66,1.66,0,0,0,30,28.35V1.65A1.64,1.64,0,0,0,28.36,0Z"/></g></g></svg>