<svg xmlns="http://www.w3.org/2000/svg" viewBox="0 0 171.08 23.66"><defs><style>.cls-1{fill:#231815;}</style></defs><title>サイトロゴ</title><g id="レイヤー_2" data-name="レイヤー 2"><g id="レイヤー_1-2" data-name="レイヤー 1"><path id="サイトロゴ" class="cls-1" d="M119.6,10.06h-1.7v2.2c.59-.15,1.08-.31,1.67-.49l.06.11c-.77.58-1.22.9-1.73,1.25v4.5c0,.78-.11,1.58-2.21,1.75a2.36,2.36,0,0,0-1.11-2.2l0-.1a8.85,8.85,0,0,0,1.35.15c.28,0,.37-.09.37-.39V14.21l-.74.46c0,.17,0,.38-.25.38-.06,0-.1,0-.17-.17L114.33,13c.6-.06,1.46-.2,2-.31,0-.41,0-2.2,0-2.58a7.65,7.65,0,0,0-1.51.1l-.23-.52c.65.07,1.33.09,1.72.09,0-.37,0-2-.05-2.36s-.07-.67-.11-.91l2.11.48c.1,0,.23.06.23.17s-.19.29-.54.46V9.73h.23l.36-.89a.26.26,0,0,1,.21-.18.35.35,0,0,1,.24.16l.74.88a.4.4,0,0,1,.13.22C119.81,10.05,119.71,10.06,119.6,10.06Zm6.51,8.23a9,9,0,0,1-2.23-4.11v4.18c0,.43,0,1-1,1-.71,0-.73-.33-.73-.63,0-.74,0-2.31.06-3.09a10.05,10.05,0,0,1-4,2.66l-.07-.12a10.59,10.59,0,0,0,3.28-4.46h-.73a7.27,7.27,0,0,0-1.52.09l-.22-.51c.87.07,1.85.08,2,.08h1.25a6.54,6.54,0,0,0-.16-2l2.1.42c.14,0,.28.08.28.22s-.19.34-.52.41v.92h1.2l.49-.88c.05-.1.12-.18.21-.18s.15.08.25.15l1.2.88c.07.06.16.13.16.21s-.13.16-.23.16h-3a6.88,6.88,0,0,0,3.39,2.6v.11A2.93,2.93,0,0,0,126.11,18.29Zm.25-10.4a.8.8,0,0,1-.23,0c-1.24.4-2.76.63-7.12.69V8.44a12.14,12.14,0,0,0,5.55-2.12l1.92,1.28c.14.1.15.11.15.17S126.52,7.89,126.36,7.89Zm-5.21,3.78c-.61,0-.68-.49-.77-1a2.25,2.25,0,0,0-.75-1.6l.07-.1c1.48.39,2.32.64,2.32,1.64A1,1,0,0,1,121.15,11.67Zm2-.54c-.65,0-.7-.45-.76-.94a2.12,2.12,0,0,0-.7-1.5V8.58c.58.12,2.4.53,2.4,1.59A1,1,0,0,1,123.2,11.13Zm3.64-1.28a19.48,19.48,0,0,1-2.48,1.82l-.08-.07a10.42,10.42,0,0,0,1-3.36l1.93,1.16c.11.07.15.12.15.19S127.36,9.73,126.84,9.85Zm13.71-1.19s0,.27,0,.28c0,3.32,0,3.74.09,7.47,0,.36,0,.64,0,.7,0,.68,0,1.71-2.41,2.18A2.71,2.71,0,0,0,136.68,17v-.13c.21,0,1.18.13,1.3.13.72,0,.72,0,.72-.81,0-.34,0-1.88,0-2.2h-2.63c0,.71,0,3.74,0,4.16s0,1-1.16,1c-.77,0-.77-.39-.77-.62,0-.71.05-3.88.07-4.52h-2.69c-.53,3.22-1.65,4.31-3,5.43l-.1-.07c1-1.9,1.5-3.43,1.5-8.59a24,24,0,0,0-.21-4l2.23.8h6.62l.46-.7c.06-.1.14-.19.23-.19a1,1,0,0,1,.25.1l1.44.88a.38.38,0,0,1,.2.31C141.15,8.17,140.73,8.51,140.55,8.66Zm-8.81,2.26c0,.07,0,.07,0,.18-.1,2-.1,2.2-.14,2.59h2.65V10.92Zm2.5-3h-2.5v2.69h2.5Zm4.44,0H136l0,2.69h2.67Zm0,3H136c0,.1,0,2.5,0,2.77h2.64Zm8.83,8.14a7.65,7.65,0,0,0,2-3.58,14.55,14.55,0,0,0,.46-4,15.52,15.52,0,0,0-2.58.29c0,.5,0,3,0,3.26s0,.55-.52.55c-.64,0-1-.66-1-1.2,0-.1.07-.69.11-1s.06-.93.07-1.28a10,10,0,0,0-1.56.55c-.3.17-.39.22-.58.22a1.59,1.59,0,0,1-1.15-1.59,2.44,2.44,0,0,1,.18-1c.43.94.9,1,1.2,1s1.62-.17,1.92-.21c-.05-2.26-.08-2.31-1.38-2.62a1.87,1.87,0,0,1,1.24-.5c.34,0,1.7.26,1.7.88a3.09,3.09,0,0,1-.11.63,4.34,4.34,0,0,0-.16,1.47c.83-.1,1.46-.17,2.59-.24,0-2.58,0-2.66-1.33-2.94A2.62,2.62,0,0,1,150,7.22c.14,0,1.86.11,1.86,1a5.16,5.16,0,0,1-.2.67,12.11,12.11,0,0,0-.21,1.71,7.4,7.4,0,0,0,1.24-.16,2.33,2.33,0,0,1,.64-.11,3.63,3.63,0,0,1,1.5.67.64.64,0,0,1,.18.47.55.55,0,0,1-.63.61,9.28,9.28,0,0,1-1.23-.28,6.71,6.71,0,0,0-1.72-.26c-.13,3.05-.13,3.32-.51,4.21a6.28,6.28,0,0,1-3.36,3.43Zm7-4.08a30.08,30.08,0,0,0,6.64-6.4c.21-.3.27-.41.27-.62,0-.38-.21-.61-.77-.92a1.63,1.63,0,0,1,.45-.07,2.8,2.8,0,0,1,2.48,1.79c0,.29-.19.38-.55.53a1.47,1.47,0,0,0-.56.46,18.31,18.31,0,0,1-1.95,1.87l.52.31c.13.08.18.11.18.25a1.59,1.59,0,0,1-.11.43,2.87,2.87,0,0,0-.12.94c0,.67.08,3.63.08,4.23s-.34,1.09-.7,1.09c-.69,0-1.05-1.09-1.05-1.3s.14-.71.15-.83c.09-.47.11-2.33.11-2.92a7.12,7.12,0,0,0-.09-1.39,18.61,18.61,0,0,1-4.92,2.66Zm16.6-1.26c0,.24-.11,1.06-.9,1.06a.85.85,0,0,1-.57-.35c-1.51-1.85-1.84-2.22-2.68-2.7,0,1.13,0,2,0,3.15,0,.48.11,2.55.11,3s-.14,1-.74,1-1.12-1.32-1.12-1.62c0-.09.11-.56.13-.64.08-.64.14-6.09.14-6.29,0-2.11,0-2.44-.55-2.62a2.27,2.27,0,0,0-.83-.11,2,2,0,0,1,1.38-.6,3.34,3.34,0,0,1,1.76.59.47.47,0,0,1,.17.39,5.8,5.8,0,0,1-.34.87,3.65,3.65,0,0,0-.09.64c0,.48,0,1.53,0,2.06C167.38,11.55,171.08,11.77,171.08,13.72ZM4.16,23.63A18.74,18.74,0,0,1,4.16.08l.23.13A22.92,22.92,0,0,0,1.07,11.86,22.91,22.91,0,0,0,4.39,23.5ZM6.58,3.93a15.24,15.24,0,0,0-.29-3L8,1.4c.34.11.6.21.6.42s-.1.29-.36.49c-.42.32-.44.52-.44.68V6.14h.44l.75-1a.16.16,0,0,1,.11,0,.25.25,0,0,1,.13,0l1.17,1.2c.07.08.1.1.1.18s-.26.23-.39.23H7.83V9.15c.8.55,2.41,1.67,2.41,2.84a.9.9,0,0,1-.8,1c-.57,0-.73-.59-.81-1.11a6.15,6.15,0,0,0-.8-2.19v4.68c0,.94.13,5.49.13,6.5,0,.34,0,1.67-1.15,1.67-.49,0-.6-.55-.6-.89s.06-1.09.08-1.32c.29-3,.29-6.76.29-7.91V10.56A15.94,15.94,0,0,1,2.83,16.9l-.18-.18a31.31,31.31,0,0,0,3.8-10,19.2,19.2,0,0,0-2.73.16l-.42-1c1.12.16,3,.24,3.28.24Zm10.24,7.48A10.85,10.85,0,0,0,23,18.1v.26a5.14,5.14,0,0,0-1.79,1.35,16.54,16.54,0,0,1-4.79-8.17c0,2.6.05,6,.24,8.51,0,.2,0,.67,0,1.06,0,.91-.5,1.35-1.07,1.35s-.65-.59-.65-.88c0-.65.16-3.9.16-4.63V12.66a16.66,16.66,0,0,1-5.93,6.92l-.13-.21a29.68,29.68,0,0,0,5.28-8h-.44a25.57,25.57,0,0,0-3.15.16l-.44-1c.91.13,3.12.24,3.64.24h1.17V6.94H12.35a18.62,18.62,0,0,1-2.24,3l-.2-.18a15.19,15.19,0,0,0,2-7l1.69.73c.11,0,.5.23.5.47a.34.34,0,0,1-.11.23c-.08.08-.57.31-.62.42a10.14,10.14,0,0,1-.7,1.76h2.52V5.46A18.29,18.29,0,0,0,14.72.88l1.92.47c.47.11.57.21.57.39s-.1.29-.36.52-.42.52-.42.7V6.34h2.19l1-1.24A.17.17,0,0,1,19.73,5a.17.17,0,0,1,.16.06l1.4,1.4a.27.27,0,0,1,.11.21c0,.21-.23.23-.36.23H16.43v3.88h3.33l1-1.3a.11.11,0,0,1,.13-.08.17.17,0,0,1,.13.08L22.52,11a.23.23,0,0,1,.08.18c0,.21-.29.23-.39.23ZM21.09,23.5a22.89,22.89,0,0,0,3.33-11.64A22.9,22.9,0,0,0,21.09.21l.23-.13a18.74,18.74,0,0,1,0,23.55Zm18.85-6.81a15.68,15.68,0,0,0,9.88,3.95v.19a2.35,2.35,0,0,0-1.51.85c-.78.86-.86,1-1,1.12a17,17,0,0,1-7.85-6.11h0c0,.89,0,1.93,0,2.42s.1,2.94.1,3.48c0,1-1.22,1.07-1.27,1.07-.47,0-.63-.23-.63-.86,0-.8.11-4.86.11-5.8-.81,1-3.9,4.48-10.64,6v-.18a28.54,28.54,0,0,0,8.58-6.09H30.58a18.3,18.3,0,0,0-3,.24l-.52-1c2,.18,4,.18,4,.18h6.74a4.58,4.58,0,0,0-.32-2.29l2.37.62c.13,0,.34.08.34.26s0,.29-.76.78c0,.16,0,.47,0,.63h7.36L47.61,15c.2-.26.23-.34.39-.34s.23.08.49.29L49.92,16a.54.54,0,0,1,.26.39c0,.26-.26.28-.41.28Zm-6.19-6c-.39.23-2.11,1.32-2.37,1.48s-1.95,1.09-2.26,1.3c0,.08-.16.49-.18.57a.35.35,0,0,1-.31.24c-.08,0-.24-.06-.37-.32L27.14,11.7a2.87,2.87,0,0,0,.78.1,25.72,25.72,0,0,0,5.83-1.27Zm6.71-8A5.46,5.46,0,0,0,40.07,0l2.52.72c.16.06.31.11.31.29s-.23.42-.7.65v1h4.16l.81-1.11c.1-.16.23-.32.39-.32s.2,0,.49.26l1.38,1.12a.58.58,0,0,1,.26.42c0,.23-.21.26-.39.26H42.2c0,.26,0,1.4,0,1.64A1.19,1.19,0,0,1,41,6.14c-.63,0-.63-.29-.57-2.81H36.17v2c0,.47-.58.84-1.07.84-.75,0-.75-.5-.75-.68s.07-1.79.07-2.13H31a17.9,17.9,0,0,0-3,.23l-.52-1c1.77.13,3.62.15,4,.15h3A6.92,6.92,0,0,0,34.11,0l2.5.73c.23.08.34.15.34.28,0,.37-.58.58-.76.65,0,.5,0,.58,0,1ZM28.76,6.21c1,.21,4,.76,4,2.53a.87.87,0,0,1-.94.91c-.6,0-.7-.16-1.53-1.51A6.26,6.26,0,0,0,28.73,6.4Zm11.91,1.2.57-.52c.18-.18.31-.29.44-.29a.83.83,0,0,1,.39.21l.83.63c.23.15.26.26.26.33a.42.42,0,0,1-.21.37l-.44.44v2c0,.52.16,3,.16,3.14,0,.91-.81,1.07-1.28,1.07s-.6-.29-.57-1.15h-4.6v.13a1.06,1.06,0,0,1-1.15,1c-.72,0-.72-.45-.72-.81s.15-3.09.15-3.67a18.5,18.5,0,0,0-.26-3.79l2.08,1h.57a8.53,8.53,0,0,0,.6-3.28l2,.94c.18.08.39.18.39.42s-.44.44-.89.49L37.36,7.41ZM36.22,8v2.14h4.6V8Zm0,2.76V13h4.6V10.79ZM47.5,6.73a.58.58,0,0,1,.19.37c0,.39-.32.39-1.07.44-.52.36-2.91,1.82-3.36,2.16l-.15-.13a28.58,28.58,0,0,0,2.21-3.28,4.88,4.88,0,0,0,.28-1Zm-4.29,3.49c2.27.1,5.62.67,5.62,2.39a1,1,0,0,1-1,1c-.52,0-.86-.31-1.87-1.27a9.72,9.72,0,0,0-2.76-2Zm13,5.9A2.58,2.58,0,0,1,54,17.73a1.17,1.17,0,0,1-1.15-1.19c0-.5.08-.58.94-1.41a8.07,8.07,0,0,0,2.52-4.91l.18-.05a5.28,5.28,0,0,1,.39,2.13A11.09,11.09,0,0,1,56.19,16.12Zm13.57,6.27a13.32,13.32,0,0,1-4.5.46c-3.59,0-4.68,0-5-1.79-.1-.7-.1-3.38-.1-5.07V7.72a5.89,5.89,0,0,0-.36-2.49l2.75.85c.21.06.5.16.5.39s-.29.42-1,.71c0,1.27-.07,9.56-.07,10.5,0,2.68,0,2.91.46,3.15a5.62,5.62,0,0,0,2.08.2c2.5,0,3.23-.1,3.64-.88a16.61,16.61,0,0,0,1-3.61l.16,0a30.25,30.25,0,0,0,.6,3.28,2.2,2.2,0,0,0,.78.86.37.37,0,0,1,.16.36C71,21.32,70.75,22,69.76,22.39Zm-3.49-17c-.88,0-1-.6-1.53-2A7.78,7.78,0,0,0,63,.31l.11-.15c4.36,1.22,4.36,3.64,4.36,4A1.21,1.21,0,0,1,66.27,5.41Zm9,11.67c-.89,0-1.17-.75-1.64-2.13a12.68,12.68,0,0,0-3.25-5l.1-.18c2.63,1,6,3.43,6,5.88C76.44,16.15,76.16,17.08,75.25,17.08ZM102,22.57H83.1A16.34,16.34,0,0,0,80,22.8l-.52-1c1.77.16,3.61.18,4,.18h6.42l0-3.12h-4a15.58,15.58,0,0,0-3.06.24l-.52-1c1.79.15,3.64.18,4,.18h3.59a26.71,26.71,0,0,0-.18-2.83l2.08.31c.2,0,.33.13.33.31s-.31.44-.52.52c0,.42-.05.6-.05,1.69h4.14L96.62,17c.15-.23.28-.34.44-.34s.28.11.52.29l1.48,1.25a.6.6,0,0,1,.26.41c0,.19-.18.26-.41.26H91.6l0,3.12h7l1-1.37c.18-.26.28-.34.41-.34s.29.1.52.28l1.59,1.36a.56.56,0,0,1,.26.41C102.39,22.52,102.18,22.57,102,22.57Zm-.62-14.72a3.3,3.3,0,0,1-1-.13C100,8,98.28,9,97.92,9.2l-.11-.13a10.87,10.87,0,0,0,.91-2.26h-16c0,.18,0,.55,0,.76,0,1.5-1,3.12-2,3.12a1,1,0,0,1-.94-1c0-.52.13-.65,1.25-1.77a4.79,4.79,0,0,0,1.33-2.63l.18,0,.13,1h7.18c0-5-.26-5.46-.55-6.06l2.78.73a.41.41,0,0,1,.34.36c0,.26-.31.52-.83.78,0,.65,0,3.59,0,4.19h7.15l.81-.7a.83.83,0,0,1,.47-.26.73.73,0,0,1,.49.28l1.4,1.3a.59.59,0,0,1,.24.5C102.13,7.62,101.87,7.85,101.38,7.85ZM86.79,5.62c-.73,0-1-.68-1.3-1.54A8.09,8.09,0,0,0,84,1.51l.08-.16c3,1,3.72,2.29,3.72,3.2A1,1,0,0,1,86.79,5.62Zm9.49,5.3a6.81,6.81,0,0,0,0,.91c0,.47.1,2.52.1,2.94,0,.65,0,1.3-1.27,1.3-.55,0-.55-.26-.52-1H87c0,.72-.08,1.45-1.12,1.45-.68,0-.68-.49-.68-.73a1.24,1.24,0,0,1,0-.31c0-1,.08-2.1.08-3.12a27.24,27.24,0,0,0-.21-3.82l2,1h7.15L94.85,9c.23-.23.36-.31.52-.31s.23.08.44.26l1,.91a.58.58,0,0,1,.23.41C97,10.5,96.77,10.66,96.28,10.92Zm-1.74-.75H87v4.31h7.54Zm2.36-7.1c-.18.21-.31.34-1.53,1.56-.18.21-1.46,1.27-1.72,1.53L93.5,6A11.39,11.39,0,0,0,95.26.91L97.6,2.16a.49.49,0,0,1,.27.39C97.87,2.76,97.66,2.94,96.9,3.07Z"/></g></g></svg>